<?xml version="1.0" standalone="no"?>
<!DOCTYPE svg PUBLIC "-//W3C//DTD SVG 20010904//EN"
 "http://www.w3.org/TR/2001/REC-SVG-20010904/DTD/svg10.dtd">
<svg version="1.0" xmlns="http://www.w3.org/2000/svg"
 width="256.000000pt" height="256.000000pt" viewBox="0 0 256.000000 256.000000"
 preserveAspectRatio="xMidYMid meet">

<g transform="translate(0.000000,256.000000) scale(0.100000,-0.100000)" stroke="none">
<path d="M175 2550 c-11 -4 -31 -20 -45 -35 l-25 -27 -5 -516 -5 -517 -48
-168 c-26 -92 -47 -173 -47 -181 0 -7 9 -21 21 -32 20 -18 23 -17 177 34 l158
52 352 0 352 0 0 -480 c0 -531 -1 -521 63 -560 31 -19 54 -20 551 -20 l520 0
159 -50 c91 -30 166 -48 178 -45 10 4 21 16 24 28 3 12 -17 106 -45 208 l-50
187 0 488 c0 371 -3 495 -13 514 -7 13 -28 35 -46 47 -32 22 -43 23 -221 23
-168 0 -189 -2 -203 -18 -19 -21 -21 -40 -7 -62 7 -12 45 -16 197 -20 l188 -5
5 -510 6 -510 35 -122 c20 -68 33 -123 29 -123 -3 0 -46 15 -96 32 l-89 33
-540 5 -540 5 -3 478 -2 477 117 0 c181 0 223 33 223 173 l0 67 68 0 c72 0 92
10 92 45 0 38 -31 55 -98 55 l-62 0 0 484 0 483 -23 34 c-12 18 -34 39 -47 46
-19 10 -165 13 -630 12 -333 0 -614 -4 -625 -9z m1220 -690 l0 -595 -545 -5
-545 -5 -89 -33 c-49 -17 -90 -31 -91 -29 -1 1 15 65 36 142 l39 140 0 486 c0
267 3 489 7 492 3 4 272 6 597 5 l591 -3 0 -595z"/>
<path d="M772 2213 c-7 -3 -19 -17 -26 -32 -35 -66 -237 -614 -234 -633 4 -29
38 -48 64 -38 15 6 29 30 45 74 l24 66 155 -2 154 -3 24 -63 c28 -73 52 -91
88 -67 13 8 24 24 24 34 0 36 -231 636 -252 654 -20 17 -41 20 -66 10z m83
-305 c28 -73 51 -138 53 -145 3 -10 -23 -13 -107 -13 -61 0 -111 3 -111 7 0
13 105 283 110 283 3 0 28 -60 55 -132z"/>
<path d="M1774 1475 c-20 -31 -10 -63 22 -71 34 -9 52 1 60 31 4 18 1 32 -11
45 -24 27 -51 25 -71 -5z"/>
<path d="M1707 1146 c-21 -8 -47 -22 -57 -31 -47 -43 -64 -138 -36 -194 14
-27 14 -29 -21 -62 -47 -45 -73 -103 -73 -164 0 -72 15 -115 56 -163 53 -62
105 -86 184 -86 74 0 125 22 177 76 62 65 85 172 42 202 -36 25 -62 7 -77 -55
-22 -88 -90 -139 -167 -125 -94 18 -145 131 -95 213 24 40 53 59 109 72 45 10
61 23 61 52 0 21 -32 49 -57 49 -25 0 -53 30 -53 57 0 62 43 84 103 53 36 -19
41 -20 63 -5 29 19 31 55 5 79 -21 19 -86 45 -111 45 -8 0 -32 -6 -53 -13z"/>
</g>
</svg>
